<svg width="24" height="24" viewBox="0 0 24 24" fill="none" xmlns="http://www.w3.org/2000/svg">
<path d="M17.8898 20.8499H6.1098C5.79211 20.8502 5.48351 20.744 5.23333 20.5482C4.98316 20.3524 4.80586 20.0784 4.7298 19.7699L2.07979 9.15992C2.05394 9.05663 2.05198 8.9488 2.07408 8.84464C2.09618 8.74048 2.14175 8.64274 2.20732 8.55884C2.27289 8.47495 2.35673 8.40712 2.45247 8.36052C2.54821 8.31392 2.65332 8.28977 2.75979 8.28992H21.2398C21.3463 8.28977 21.4514 8.31392 21.5471 8.36052C21.6429 8.40712 21.7267 8.47495 21.7923 8.55884C21.8578 8.64274 21.9034 8.74048 21.9255 8.84464C21.9476 8.9488 21.9457 9.05663 21.9198 9.15992L19.2698 19.7699C19.1937 20.0784 19.0164 20.3524 18.7663 20.5482C18.5161 20.744 18.2075 20.8502 17.8898 20.8499V20.8499Z" stroke="#151515" stroke-width="2.5" stroke-linecap="round" stroke-linejoin="round"/>
<path d="M9.79978 3.14996L6.89978 8.28996" stroke="#151515" stroke-width="2.5" stroke-linecap="round" stroke-linejoin="round"/>
<path d="M13.8799 3.14996L16.7899 8.28996" stroke="#151515" stroke-width="2.5" stroke-linecap="round" stroke-linejoin="round"/>
</svg>
